<svg width="129" height="129" viewBox="0 0 129 129" fill="none" xmlns="http://www.w3.org/2000/svg">
<path d="M83.3544 64.2L65.4541 128.966L45.6195 64.7662L83.3544 64.2Z" fill="#A32346"/>
<path d="M45.6181 64.7663L63.5184 0.000265045L83.3531 64.2002L45.6181 64.7663Z" fill="#A32346"/>
<path d="M83.3544 64.2L65.4541 128.966L64.4869 64.4831L83.3544 64.2Z" fill="#8E1838"/>
<path d="M64.4856 64.4833L63.5184 0.000265045L83.3531 64.2002L64.4856 64.4833Z" fill="#8E1838"/>
<path d="M55.2417 65.2656C55.2135 63.4363 55.7285 61.6397 56.7216 60.1031C57.7146 58.5665 59.1411 57.359 60.8206 56.6332C62.5001 55.9075 64.3572 55.6961 66.1568 56.0259C67.9564 56.3557 69.6179 57.2118 70.9308 58.4859C72.2438 59.76 73.1494 61.3949 73.533 63.1837C73.9166 64.9726 73.7611 66.8351 73.086 68.5355C72.4109 70.2359 71.2466 71.698 69.7404 72.7366C68.2343 73.7753 66.4538 74.3439 64.6244 74.3706C62.1739 74.4032 59.8105 73.4633 58.0518 71.7567C56.2931 70.05 55.2826 67.7159 55.2417 65.2656Z" fill="#8E1838"/>
<path d="M60.1271 60.8855C57.7854 63.2984 57.8432 67.1526 60.2562 69.4942C62.6692 71.8358 66.5236 71.778 68.8653 69.3651C71.207 66.9522 71.1492 63.0979 68.7362 60.7563C66.3232 58.4148 62.4688 58.4726 60.1271 60.8855Z" fill="white"/>
</svg>
