<svg width="280" height="288" viewBox="0 0 280 288" fill="none" xmlns="http://www.w3.org/2000/svg">
<path d="M140.023 39C118.463 38.9954 97.3859 45.3848 79.4574 57.3601C61.5289 69.3354 47.5545 86.3587 39.3016 106.277C31.0488 126.195 28.8883 148.113 33.0933 169.259C37.2984 190.405 47.6801 209.829 62.9254 225.075C78.1707 240.32 97.5948 250.702 118.741 254.907C139.887 259.112 161.805 256.951 181.723 248.698C201.641 240.446 218.665 226.471 230.64 208.543C242.615 190.614 249.005 169.537 249 147.977C248.963 119.086 237.47 91.3884 217.041 70.9594C196.612 50.5303 168.914 39.037 140.023 39ZM214.535 219.313C214.15 219.715 213.51 219.715 213.118 219.32L210.944 217.129L206.792 212.976C206.399 212.584 205.762 212.586 205.373 212.981L205.146 213.211C204.761 213.602 204.762 214.23 205.149 214.619L209.292 218.781L211.485 220.974C211.879 221.369 211.875 222.009 211.472 222.394C210.127 223.678 208.747 224.926 207.34 226.147C206.917 226.513 206.277 226.457 205.921 226.026L204.572 224.392C204.222 223.966 203.593 223.905 203.167 224.254L202.783 224.57C202.354 224.92 202.293 225.552 202.645 225.979L203.99 227.61C204.345 228.041 204.279 228.68 203.839 229.025C202.517 230.061 201.172 231.07 199.802 232.035C199.351 232.354 198.727 232.237 198.415 231.781L196.653 229.209L193.372 224.336C193.063 223.878 192.441 223.757 191.983 224.066L191.711 224.249C191.253 224.559 191.132 225.181 191.443 225.639L194.744 230.512L196.509 233.107C196.82 233.563 196.702 234.186 196.241 234.49C194.419 235.689 192.478 236.844 190.534 237.933C190.047 238.206 189.433 238.023 189.171 237.53L188.159 235.628C187.901 235.141 187.298 234.956 186.811 235.212L186.367 235.446C185.878 235.703 185.69 236.309 185.949 236.798L186.945 238.682C187.203 239.17 187.017 239.776 186.525 240.028C185.034 240.789 183.511 241.507 181.973 242.198C181.46 242.429 180.859 242.186 180.646 241.665L179.452 238.752L177.204 233.321C176.993 232.811 176.409 232.568 175.899 232.779L175.606 232.9C175.095 233.111 174.852 233.696 175.064 234.207L177.311 239.636L178.512 242.534C178.723 243.042 178.484 243.626 177.973 243.832C176.212 244.542 174.354 245.211 172.504 245.818C171.974 245.993 171.406 245.693 171.245 245.159L170.62 243.091C170.459 242.559 169.896 242.261 169.366 242.425L168.946 242.555C168.422 242.718 168.127 243.271 168.283 243.796L168.897 245.854C169.057 246.389 168.747 246.952 168.208 247.101C166.566 247.553 164.976 247.97 163.335 248.35C162.791 248.476 162.253 248.127 162.141 247.58L161.507 244.478L160.332 238.704C160.222 238.164 159.696 237.815 159.156 237.923L158.79 237.996C158.247 238.105 157.896 238.634 158.006 239.176L159.179 244.943L159.814 248.045C159.925 248.592 159.568 249.125 159.018 249.224C156.837 249.617 154.641 249.953 152.432 250.209C151.88 250.273 151.385 249.868 151.333 249.315L151.127 247.147C151.075 246.598 150.588 246.195 150.038 246.246L149.54 246.293C148.989 246.344 148.585 246.833 148.637 247.384L148.841 249.518C148.894 250.074 148.482 250.566 147.925 250.606C146.272 250.723 144.618 250.804 142.965 250.839C142.409 250.851 141.955 250.401 141.955 249.845V246.689V240.822C141.955 240.27 141.507 239.822 140.955 239.822H140.628C140.075 239.822 139.628 240.27 139.628 240.822V246.689V249.855C139.628 250.407 139.18 250.856 138.628 250.847C136.752 250.817 134.899 250.707 133.049 250.564C132.493 250.521 132.083 250.03 132.136 249.475L132.34 247.337C132.393 246.787 131.988 246.298 131.438 246.246L130.939 246.2C130.389 246.148 129.902 246.551 129.85 247.1L129.646 249.24C129.593 249.796 129.095 250.201 128.542 250.133C126.881 249.932 125.22 249.685 123.56 249.4C123.012 249.307 122.65 248.781 122.753 248.235L123.335 245.153L124.448 239.387C124.553 238.844 124.196 238.319 123.653 238.215L123.29 238.147C122.749 238.044 122.226 238.398 122.121 238.939L121.007 244.71L120.406 247.837C120.301 248.384 119.77 248.74 119.227 248.622C117.041 248.148 114.894 247.584 112.764 246.972C112.228 246.818 111.925 246.253 112.09 245.72L112.727 243.664C112.891 243.136 112.596 242.576 112.068 242.413L111.651 242.283C111.124 242.12 110.563 242.415 110.4 242.942L109.758 245.012C109.595 245.54 109.034 245.835 108.509 245.663C106.891 245.133 105.359 244.564 103.813 243.998C103.277 243.802 103.011 243.199 103.23 242.672L104.411 239.822L106.64 234.391C106.849 233.881 106.606 233.298 106.096 233.087L105.801 232.965C105.29 232.755 104.706 232.997 104.495 233.507L102.247 238.938L101.054 241.832C100.84 242.351 100.241 242.593 99.7293 242.361C98.0138 241.584 96.2984 240.747 94.583 239.869C94.0864 239.615 93.8979 239.001 94.1624 238.51L95.1619 236.654C95.4239 236.167 95.2414 235.56 94.7544 235.299L94.3077 235.059C93.8206 234.798 93.2138 234.981 92.953 235.468L91.9477 237.347C91.6849 237.838 91.0713 238.021 90.5859 237.748C89.1197 236.922 87.6857 236.068 86.267 235.16C85.7981 234.86 85.6732 234.232 85.985 233.77L87.7461 231.164L90.9877 226.272C91.2928 225.811 91.1669 225.191 90.7065 224.886L90.4418 224.71C89.9814 224.405 89.3609 224.531 89.0558 224.992L85.8143 229.884L84.0559 232.486C83.7431 232.949 83.1114 233.066 82.6561 232.742C80.877 231.476 79.0978 230.145 77.3186 228.771C76.8721 228.426 76.8024 227.779 77.1631 227.345L78.4952 225.742C78.8481 225.317 78.79 224.686 78.3653 224.333L77.9748 224.009C77.5487 223.655 76.9158 223.714 76.5636 224.142L75.2484 225.739C74.8906 226.174 74.2448 226.227 73.8213 225.857C72.5735 224.765 71.3449 223.673 70.1356 222.581C69.7118 222.198 69.6962 221.539 70.0999 221.135L72.2678 218.967L76.4104 214.805C76.7974 214.416 76.7989 213.788 76.4137 213.397L76.1869 213.167C75.7972 212.772 75.1602 212.77 74.7677 213.162L70.6152 217.315L68.4407 219.507C68.0489 219.902 67.4096 219.902 67.0234 219.501C65.7248 218.154 64.4748 216.772 63.2642 215.362C62.9013 214.94 62.9596 214.302 63.3894 213.948L65.0039 212.619C65.4295 212.268 65.4911 211.64 65.1417 211.213L64.8265 210.828C64.4759 210.4 63.8443 210.339 63.4173 210.69L61.8098 212.014C61.3787 212.369 60.7401 212.302 60.3955 211.863C59.3601 210.543 58.35 209.199 57.3737 207.831C57.05 207.377 57.1661 206.748 57.6268 206.434L60.211 204.676L65.062 201.376C65.5192 201.065 65.6372 200.442 65.3253 199.985L65.0836 199.631C64.7996 199.215 64.2508 199.076 63.8026 199.305L57.3481 202.605L54.7479 204.374C54.2934 204.683 53.674 204.568 53.3693 204.11C52.1524 202.282 50.9937 200.333 49.9143 198.368C49.6472 197.882 49.8334 197.273 50.3238 197.014L52.2062 196.019C52.6938 195.761 52.8806 195.157 52.6238 194.669L52.3915 194.228C52.1339 193.738 51.5281 193.551 51.0392 193.809L49.167 194.799C48.6739 195.06 48.0626 194.867 47.8122 194.369C47.0586 192.869 46.3321 191.356 45.6496 189.821C45.4236 189.313 45.6635 188.72 46.1767 188.506L49.0852 187.289L54.4987 185.02C55.0062 184.808 55.2465 184.225 55.0364 183.716L54.915 183.422C54.7036 182.91 54.1164 182.668 53.6054 182.881L48.1775 185.148L45.266 186.365C44.754 186.58 44.165 186.336 43.9609 185.82C43.2659 184.063 42.6013 182.21 41.9953 180.364C41.8213 179.834 42.1204 179.267 42.6544 179.105L44.723 178.48C45.2543 178.319 45.5532 177.757 45.3888 177.227L45.26 176.811C45.097 176.285 44.5402 175.99 44.0139 176.15L41.9566 176.776C41.4225 176.938 40.8585 176.632 40.7089 176.094C40.2589 174.477 39.8443 172.852 39.4652 171.22C39.3388 170.675 39.6881 170.136 40.2354 170.023L43.3129 169.39L49.0636 168.216C49.6032 168.106 49.9522 167.58 49.8442 167.04L49.7709 166.674C49.6623 166.131 49.133 165.78 48.5903 165.89L42.8474 167.063L39.7641 167.679C39.2189 167.788 38.689 167.432 38.5897 166.885C38.1963 164.716 37.8609 162.52 37.6045 160.297C37.5406 159.743 37.9484 159.248 38.504 159.198L40.6375 159.006C41.1889 158.957 41.5952 158.468 41.5436 157.917L41.497 157.418C41.4458 156.87 40.9602 156.466 40.4113 156.516L38.2907 156.707C37.7367 156.757 37.2478 156.346 37.2083 155.791C37.0906 154.136 37.0098 152.481 36.9745 150.825C36.9626 150.269 37.4125 149.815 37.9687 149.815H41.1017H47.0844C47.6367 149.815 48.0844 149.368 48.0844 148.815V148.488C48.0844 147.936 47.6367 147.488 47.0844 147.488H41.1017H37.9586C37.4063 147.488 36.9579 147.04 36.9656 146.488C36.9919 144.607 37.0906 142.738 37.2431 140.882C37.2887 140.328 37.782 139.923 38.3349 139.979L40.457 140.195C41.006 140.251 41.4965 139.851 41.553 139.302L41.6044 138.802C41.6609 138.252 41.2604 137.76 40.7103 137.704L38.5675 137.488C38.0146 137.432 37.6128 136.936 37.6797 136.384C37.8811 134.724 38.1282 133.063 38.4125 131.402C38.5066 130.853 39.0357 130.491 39.5832 130.597L42.6611 131.195L48.4263 132.308C48.9697 132.413 49.495 132.057 49.5983 131.513L49.6672 131.15C49.7701 130.609 49.4155 130.086 48.8744 129.982L43.1034 128.867L39.9934 128.249C39.4495 128.141 39.097 127.611 39.2143 127.069C39.6851 124.894 40.2349 122.735 40.8428 120.602C40.9957 120.065 41.5611 119.762 42.0941 119.927L44.1586 120.567C44.6827 120.73 45.2399 120.439 45.4071 119.917L45.5423 119.494C45.7117 118.965 45.4169 118.399 44.886 118.234L42.825 117.595C42.2975 117.432 42.0018 116.871 42.1733 116.346C42.7034 114.724 43.2724 113.182 43.8385 111.643C44.0347 111.11 44.6348 110.846 45.1601 111.063L48.0378 112.249L53.4674 114.496C53.978 114.707 54.5632 114.464 54.7742 113.954L54.8951 113.661C55.1058 113.151 54.8633 112.566 54.3533 112.355L48.9223 110.107L46.016 108.917C45.4926 108.702 45.2507 108.097 45.4863 107.582C46.2717 105.869 47.0966 104.155 47.9703 102.441C48.2233 101.945 48.8346 101.756 49.3257 102.019L51.2 103.022C51.6894 103.284 52.2983 103.097 52.5567 102.606L52.789 102.165C53.045 101.678 52.8605 101.076 52.3758 100.817L50.4939 99.8103C50.0012 99.5467 49.8197 98.9301 50.0951 98.4438C50.9207 96.986 51.777 95.5417 52.6978 94.1195C52.9993 93.6537 53.6251 93.533 54.0839 93.8451L56.6731 95.6064L61.5891 98.8506C62.0495 99.1544 62.6689 99.0281 62.9735 98.5684L63.15 98.3021C63.4551 97.8417 63.3291 97.2212 62.8687 96.9161L57.9765 93.6746L55.3553 91.9153C54.8903 91.6033 54.7719 90.9701 55.0966 90.5139C56.3628 88.7346 57.6938 86.9553 59.0687 85.176C59.4129 84.7306 60.0574 84.66 60.4917 85.0182L62.1183 86.3598C62.5436 86.7106 63.1725 86.651 63.5244 86.2267L63.8327 85.8549C64.185 85.4301 64.1265 84.8001 63.702 84.4474L62.086 83.1047C61.6566 82.7479 61.6023 82.1084 61.9688 81.6872C63.0577 80.436 64.163 79.2095 65.2523 78.0157C65.6372 77.594 66.2965 77.5811 66.6986 77.9864L68.8463 80.1514L72.9987 84.3039C73.3912 84.6964 74.0283 84.6941 74.418 84.2989L74.6448 84.0688C75.0299 83.6781 75.0284 83.0502 74.6415 82.6613L70.5829 78.5832C70.5271 78.5272 70.4781 78.4647 70.437 78.397L68.2819 74.8497C68.04 74.4516 68.1047 73.9389 68.4409 73.6165C69.8349 72.2798 71.2681 70.9822 72.7301 69.7134C73.1525 69.3468 73.7933 69.4028 74.1492 69.8343L75.4936 71.4642C75.8457 71.891 76.4774 71.9508 76.9034 71.5976L77.2758 71.2888C77.6988 70.938 77.7595 70.3116 77.4117 69.8861L76.074 68.2498C75.7214 67.8186 75.7889 67.182 76.2279 66.8391C77.5496 65.8066 78.895 64.808 80.2642 63.8348C80.7173 63.5127 81.3455 63.6274 81.6597 64.0861L83.4168 66.6515L86.8544 71.4681C87.1693 71.9093 87.7784 72.0193 88.2277 71.7162L88.52 71.519C88.979 71.2092 89.099 70.5854 88.7875 70.1275L85.4884 65.2783L83.7234 62.6837C83.4127 62.227 83.5308 61.6044 83.9921 61.3007C85.8139 60.1017 87.7544 58.9469 89.6987 57.8572C90.1855 57.5844 90.8001 57.7678 91.0621 58.2604L92.0831 60.1809C92.3378 60.66 92.928 60.8485 93.4133 60.6059L93.9536 60.3357C94.4555 60.0848 94.6527 59.47 94.3904 58.974L93.4083 57.1163C93.1485 56.6248 93.3392 56.0154 93.8353 55.7646C95.3227 55.0128 96.842 54.2862 98.3765 53.5933C98.8892 53.3617 99.4901 53.6044 99.7034 54.125L100.897 57.0386L103.145 62.4696C103.356 62.9797 103.94 63.2222 104.451 63.0114L104.743 62.8905C105.254 62.6795 105.497 62.0943 105.286 61.5838L103.038 56.1542L101.837 53.2565C101.626 52.748 101.865 52.1641 102.376 51.9583C104.14 51.2476 106 50.5804 107.853 49.985C108.38 49.8156 108.942 50.1142 109.103 50.6441L109.728 52.7018C109.89 53.2322 110.452 53.5302 110.981 53.366L111.404 53.2351C111.927 53.0728 112.222 52.5194 112.066 51.9941L111.452 49.9365C111.292 49.401 111.603 48.8381 112.141 48.6897C113.803 48.2322 115.412 47.8131 117.075 47.4412C117.595 47.3249 118.111 47.6442 118.246 48.1595L119.075 51.3128L120.25 57.0861C120.36 57.626 120.885 57.9754 121.426 57.8673L121.792 57.7941C122.335 57.6855 122.686 57.1566 122.576 56.6141L121.403 50.8473L120.768 47.7458C120.656 47.1988 121.014 46.6657 121.564 46.5666C123.745 46.1733 125.941 45.8379 128.15 45.5815C128.702 45.5174 129.196 45.9223 129.249 46.4759L129.455 48.643C129.507 49.1922 129.994 49.5954 130.543 49.5441L131.042 49.4975C131.593 49.446 131.997 48.9573 131.944 48.4067L131.741 46.2721C131.687 45.7163 132.1 45.2242 132.657 45.1846C134.31 45.0671 135.963 44.9865 137.617 44.9512C138.173 44.9393 138.627 45.3892 138.627 45.9454V48.9853V54.8516C138.627 55.4039 139.074 55.8516 139.627 55.8516H139.954C140.507 55.8516 140.954 55.4039 140.954 54.8516V48.9853V45.7957C140.954 45.2434 141.402 44.795 141.954 44.8038C143.83 44.8336 145.683 44.9433 147.533 45.0868C148.089 45.1298 148.499 45.6211 148.446 46.1756L148.242 48.3137C148.189 48.8642 148.594 49.3529 149.144 49.4044L149.643 49.451C150.192 49.5023 150.679 49.0994 150.732 48.5504L150.936 46.4107C150.989 45.8553 151.487 45.4502 152.04 45.5174C153.701 45.7189 155.362 45.9661 157.022 46.2505C157.57 46.3443 157.931 46.8699 157.829 47.4158L157.247 50.4982L156.134 56.2633C156.029 56.8067 156.385 57.332 156.929 57.4353L157.292 57.5043C157.833 57.6071 158.356 57.2526 158.46 56.7114L159.575 50.9404L160.176 47.8133C160.28 47.2668 160.812 46.9106 161.355 47.0286C163.54 47.5031 165.688 48.0672 167.818 48.6788C168.354 48.8327 168.657 49.3982 168.492 49.9311L167.854 51.9871C167.691 52.5146 167.986 53.0747 168.513 53.2383L168.931 53.3676C169.458 53.5311 170.018 53.236 170.182 52.7085L170.823 50.6388C170.987 50.1112 171.548 49.8155 172.072 49.9874C173.691 50.5175 175.223 51.0865 176.769 51.6527C177.305 51.8488 177.571 52.4515 177.352 52.9783L176.17 55.8283L173.942 61.2596C173.733 61.7697 173.976 62.353 174.486 62.5635L174.781 62.6856C175.291 62.8963 175.876 62.6538 176.087 62.1438L178.335 56.7128L179.528 53.819C179.742 53.2998 180.341 53.0581 180.853 53.2898C182.568 54.067 184.284 54.9039 185.999 55.782C186.496 56.0363 186.684 56.6493 186.42 57.1406L185.42 58.9967C185.158 59.4834 185.34 60.0904 185.827 60.3519L186.274 60.5917C186.761 60.8532 187.368 60.6698 187.629 60.1824L188.634 58.3034C188.897 57.8123 189.511 57.6301 189.996 57.9033C191.462 58.7285 192.896 59.5826 194.315 60.491C194.784 60.7913 194.909 61.419 194.597 61.8804L192.836 64.4869L189.594 69.3791C189.289 69.8395 189.415 70.46 189.875 70.765L190.14 70.9405C190.601 71.2456 191.221 71.1196 191.526 70.6592L194.768 65.767L196.526 63.1646C196.839 62.7017 197.471 62.5846 197.926 62.9085C199.705 64.1746 201.484 65.5054 203.263 66.8802C203.71 67.2253 203.779 67.8719 203.419 68.306L202.087 69.9093C201.734 70.334 201.792 70.9643 202.217 71.3173L202.607 71.642C203.033 71.9962 203.666 71.9365 204.018 71.5087L205.336 69.9083C205.693 69.4751 206.336 69.42 206.76 69.7882C208.018 70.8821 209.249 71.9761 210.453 73.07C210.874 73.4527 210.888 74.1096 210.485 74.5121L208.314 76.6833L204.172 80.8458C203.785 81.2347 203.783 81.8626 204.168 82.2533L204.395 82.4833C204.785 82.8786 205.422 82.8809 205.814 82.4884L209.967 78.3359L212.141 76.1438C212.533 75.7488 213.172 75.7492 213.559 76.1497C214.857 77.4964 216.107 78.8792 217.318 80.2887C217.681 80.7111 217.622 81.3483 217.192 81.7024L215.578 83.0319C215.152 83.3824 215.091 84.0111 215.44 84.4376L215.755 84.8224C216.106 85.2504 216.738 85.3123 217.165 84.9606L218.772 83.6368C219.203 83.2818 219.842 83.3484 220.186 83.7878C221.222 85.1082 222.232 86.4522 223.208 87.8199C223.532 88.2734 223.416 88.9032 222.955 89.2166L220.371 90.9746L215.52 94.2749C215.063 94.5859 214.945 95.209 215.257 95.6657L215.434 95.9249C215.744 96.3795 216.364 96.4977 216.82 96.1893L221.674 92.9065L224.274 91.1376C224.729 90.8285 225.348 90.9436 225.653 91.4009C226.87 93.2246 228.029 95.159 229.108 97.1199C229.375 97.6058 229.189 98.2148 228.699 98.474L226.816 99.4692C226.329 99.727 226.142 100.331 226.399 100.819L226.631 101.26C226.889 101.75 227.494 101.937 227.983 101.679L229.856 100.689C230.349 100.428 230.96 100.621 231.21 101.119C231.964 102.619 232.69 104.132 233.373 105.667C233.599 106.175 233.359 106.768 232.846 106.982L229.937 108.199L224.524 110.467C224.016 110.68 223.776 111.263 223.986 111.771L224.107 112.066C224.319 112.577 224.906 112.82 225.417 112.607L230.845 110.34L233.756 109.122C234.268 108.908 234.857 109.152 235.062 109.668C235.757 111.425 236.421 113.278 237.027 115.124C237.201 115.654 236.902 116.221 236.368 116.383L234.299 117.008C233.768 117.169 233.469 117.731 233.634 118.261L233.762 118.677C233.925 119.202 234.482 119.498 235.009 119.338L237.066 118.712C237.6 118.55 238.164 118.856 238.314 119.393C238.764 121.011 239.178 122.635 239.557 124.268C239.684 124.813 239.334 125.352 238.787 125.464L235.71 126.098L229.959 127.272C229.419 127.382 229.07 127.907 229.178 128.448L229.252 128.814C229.36 129.357 229.889 129.708 230.432 129.598L236.175 128.425L239.258 127.808C239.804 127.699 240.333 128.056 240.433 128.603C240.826 130.772 241.161 132.968 241.418 135.191C241.482 135.745 241.074 136.24 240.518 136.29L238.385 136.482C237.833 136.531 237.427 137.02 237.479 137.571L237.525 138.07C237.577 138.618 238.062 139.022 238.611 138.972L240.732 138.781C241.286 138.731 241.775 139.142 241.814 139.697C241.932 141.352 242.013 143.007 242.048 144.663C242.06 145.219 241.61 145.672 241.054 145.672H237.921H233.195C232.643 145.672 232.195 146.12 232.195 146.672V147C232.195 147.552 232.643 148 233.195 148H239.061H242.204C242.757 148 243.205 148.448 243.197 149C243.171 150.881 243.072 152.75 242.92 154.606C242.874 155.16 242.381 155.565 241.828 155.509L239.706 155.293C239.157 155.237 238.666 155.637 238.61 156.186L238.559 156.686C238.502 157.236 238.903 157.728 239.453 157.783L241.595 158C242.148 158.056 242.55 158.552 242.483 159.104C242.282 160.764 242.035 162.425 241.75 164.086C241.656 164.635 241.127 164.997 240.58 164.891L237.502 164.293L231.737 163.18C231.193 163.075 230.668 163.431 230.565 163.975L230.496 164.338C230.393 164.879 230.747 165.402 231.289 165.506L237.06 166.621L240.17 167.239C240.714 167.347 241.066 167.877 240.949 168.419C240.478 170.594 239.928 172.753 239.32 174.886C239.167 175.423 238.602 175.726 238.069 175.561L236.004 174.921C235.48 174.758 234.923 175.049 234.756 175.571L234.621 175.994C234.451 176.523 234.746 177.089 235.277 177.254L237.338 177.892C237.866 178.056 238.161 178.616 237.99 179.141C237.46 180.764 236.891 182.306 236.324 183.845C236.128 184.378 235.528 184.642 235.003 184.425L232.125 183.239L226.696 180.992C226.185 180.781 225.6 181.023 225.389 181.534L225.268 181.827C225.057 182.337 225.3 182.922 225.81 183.133L231.241 185.381L234.147 186.571C234.67 186.786 234.912 187.391 234.677 187.905C233.891 189.619 233.066 191.333 232.193 193.047C231.94 193.543 231.328 193.732 230.837 193.469L228.982 192.476C228.485 192.21 227.867 192.407 227.615 192.91L227.346 193.449C227.104 193.933 227.292 194.522 227.769 194.777L229.669 195.794C230.162 196.058 230.343 196.674 230.068 197.16C229.242 198.618 228.386 200.063 227.465 201.485C227.164 201.951 226.538 202.071 226.079 201.759L223.601 200.073C223.527 200.023 223.447 199.983 223.363 199.954L218.263 198.201C217.832 198.053 217.356 198.215 217.104 198.594L216.804 199.048C216.498 199.508 216.624 200.129 217.085 200.434L221.977 203.675L224.598 205.435C225.063 205.747 225.182 206.38 224.857 206.836C223.591 208.615 222.26 210.395 220.885 212.174C220.541 212.619 219.896 212.69 219.462 212.332L217.835 210.99C217.41 210.639 216.781 210.699 216.429 211.123L216.121 211.495C215.768 211.92 215.827 212.55 216.251 212.903L217.829 214.213C218.273 214.582 218.313 215.249 217.92 215.672C216.805 216.873 215.685 218.114 214.535 219.313Z" fill="#0E0E0E"/>
<path d="M140.015 238C122.213 238.003 104.811 232.727 90.0079 222.838C75.2052 212.95 63.6674 198.894 56.8537 182.448C50.04 166.002 48.2564 147.905 51.7286 130.446C55.2008 112.986 63.7728 96.9481 76.3604 84.3604C88.948 71.7728 104.986 63.2008 122.446 59.7286C139.905 56.2564 158.002 58.04 174.448 64.8537C190.894 71.6674 204.95 83.2053 214.838 98.008C224.727 112.811 230.003 130.213 230 148.015C229.973 171.872 220.483 194.744 203.614 211.614C186.744 228.483 163.872 237.973 140.015 238ZM140.015 61.004C122.806 61.004 105.983 66.1071 91.6742 75.668C77.3653 85.2289 66.2129 98.8181 59.6273 114.717C53.0417 130.616 51.3185 148.111 54.6759 164.99C58.0332 181.868 66.3202 197.372 78.4889 209.541C90.6575 221.709 106.161 229.996 123.04 233.354C139.918 236.711 157.413 234.988 173.312 228.402C189.212 221.817 202.801 210.664 212.362 196.355C221.923 182.047 227.026 165.224 227.026 148.015C226.998 124.947 217.822 102.831 201.51 86.5191C185.199 70.2074 163.083 61.0314 140.015 61.004Z" fill="#8E1838"/>
<path d="M263.835 202.191C266.208 201.951 267.366 199.173 265.866 197.319L255.683 184.736C255.055 183.961 254.857 182.924 255.137 181.966C257.159 175.049 258.561 167.966 259.324 160.8C259.43 159.805 260.011 158.921 260.89 158.443L275.154 150.693C277.243 149.558 277.244 146.56 275.156 145.422L260.888 137.653C260.01 137.176 259.43 136.292 259.325 135.298C258.561 128.132 257.16 121.047 255.137 114.13C254.857 113.172 255.055 112.135 255.683 111.36L265.875 98.7656C267.373 96.9141 266.22 94.1387 263.851 93.8942L247.673 92.2247C246.676 92.1218 245.799 91.5269 245.319 90.6474C241.876 84.3372 237.87 78.3501 233.352 72.7589C232.722 71.9802 232.507 70.9433 232.791 69.9833L237.421 54.3553C238.097 52.0734 235.975 49.9507 233.693 50.6267L218.065 55.2565C217.105 55.541 216.068 55.3254 215.289 54.6958C209.704 50.1799 203.724 46.1749 197.422 42.7291C196.544 42.2488 195.95 41.3724 195.847 40.3767L194.178 24.2205C193.934 21.8513 191.158 20.6984 189.307 22.1967L176.714 32.3878C175.937 33.0164 174.899 33.2144 173.941 32.9331C167.019 30.9019 159.928 29.5004 152.754 28.7456C151.758 28.6408 150.872 28.0604 150.394 27.1806L142.602 12.8517C141.466 10.7616 138.465 10.7628 137.33 12.8539L129.582 27.1305C129.104 28.0115 128.217 28.5929 127.22 28.6978C120.047 29.4526 112.956 30.854 106.035 32.885C105.077 33.1664 104.039 32.9683 103.262 32.3398L90.6689 22.1486C88.8175 20.6503 86.0423 21.8032 85.7976 24.1724L84.1285 40.3286C84.0257 41.3243 83.4317 42.2007 82.5535 42.681C76.2516 46.1268 70.2721 50.1318 64.6869 54.6477C63.9082 55.2773 62.871 55.4929 61.9107 55.2084L46.2832 50.5786C44.0014 49.9026 41.8786 52.0254 42.5546 54.3072L47.1845 69.9352C47.4689 70.8952 47.2536 71.9322 46.6242 72.7109C42.1058 78.3021 38.1004 84.2891 34.6567 90.5993C34.1767 91.4788 33.2995 92.0738 32.3028 92.1766L16.1303 93.8456C13.76 94.0902 12.6072 96.8677 14.1078 98.7188L24.3134 111.309C24.9433 112.086 25.1419 113.125 24.86 114.085C22.8295 120.999 21.4283 128.081 20.6736 135.247C20.5687 136.242 19.989 137.128 19.1101 137.607L4.84408 145.374C2.75582 146.511 2.75717 149.51 4.84645 150.645L19.1078 158.394C19.988 158.872 20.5688 159.758 20.6737 160.755C21.4285 167.92 22.8296 175.002 24.86 181.915C25.1419 182.875 24.9433 183.914 24.3134 184.691L14.1078 197.281C12.6072 199.132 13.7599 201.91 16.1303 202.154L32.3012 203.823C33.2988 203.926 34.1765 204.522 34.6563 205.403C38.0955 211.715 42.1006 217.701 46.6223 223.289C47.2527 224.068 47.4687 225.105 47.1841 226.066L42.5546 241.693C41.8786 243.975 44.0014 246.097 46.2832 245.421L61.9107 240.792C62.871 240.507 63.9082 240.723 64.6869 241.352C70.2721 245.868 76.2516 249.873 82.5535 253.319C83.4317 253.799 84.0257 254.676 84.1285 255.671L85.7976 271.828C86.0423 274.197 88.8175 275.35 90.6689 273.851L103.262 263.66C104.039 263.032 105.077 262.834 106.035 263.115C112.956 265.146 120.047 266.547 127.22 267.302C128.217 267.407 129.104 267.988 129.582 268.869L137.327 283.141C138.463 285.233 141.465 285.233 142.601 283.141L150.346 268.869C150.824 267.988 151.711 267.407 152.708 267.302C159.881 266.547 166.971 265.146 173.893 263.115C174.851 262.834 175.889 263.032 176.666 263.66L189.259 273.851C191.11 275.35 193.886 274.197 194.13 271.828L195.799 255.671C195.902 254.676 196.496 253.799 197.374 253.319C203.676 249.873 209.656 245.868 215.241 241.352C216.02 240.723 217.057 240.507 218.017 240.792L233.645 245.421C235.927 246.097 238.049 243.975 237.373 241.693L232.744 226.066C232.459 225.105 232.675 224.068 233.306 223.289C237.826 217.702 241.831 211.717 245.269 205.406C245.75 204.524 246.631 203.927 247.631 203.826L263.835 202.191ZM139.964 32.7448C162.771 32.7448 185.066 39.5079 204.03 52.1789C222.993 64.8499 237.773 82.8597 246.501 103.931C255.229 125.002 257.513 148.188 253.064 170.557C248.614 192.926 237.631 213.473 221.504 229.6C205.377 245.727 184.83 256.71 162.461 261.16C140.092 265.609 116.906 263.325 95.8347 254.598C74.7636 245.87 56.7538 231.089 44.0828 212.126C31.4118 193.162 24.6486 170.867 24.6486 148.06C24.6804 117.486 36.8399 88.1739 58.4588 66.555C80.0777 44.936 109.39 32.7766 139.964 32.7448Z" fill="#8E1838"/>
<path d="M142.501 -1.18362e-07L142.502 9.18609L118.005 14.2895L118.004 7.14474L142.501 -1.18362e-07Z" fill="#5B5751"/>
<path d="M167 7.14571L167 14.2904L142.503 9.18707L142.502 0.000976562L167 7.14571Z" fill="#47423F"/>
<path d="M142.499 9.18555L142.5 16.3303L118.003 20.413L118.002 14.2889L142.499 9.18555Z" fill="#F6D445"/>
<path d="M166.995 14.2899L166.996 20.414L142.499 16.3313L142.498 9.18652L166.995 14.2899Z" fill="#E5A430"/>
<path d="M142.501 16.332L142.503 48.9937L118.006 43.8903L118.004 20.4147L142.501 16.332Z" fill="#5B5751"/>
<path d="M166.999 20.4167L167.001 43.8922L142.504 48.9956L142.502 16.334L166.999 20.4167Z" fill="#47423F"/>
<path d="M120.127 26.3652L118.086 26.5388C118.004 26.5388 118.004 26.8348 118.004 24.4974L119.954 24.3443C120.204 24.3511 120.444 24.45 120.626 24.6221C120.809 24.7942 120.921 25.0274 120.943 25.2773C120.964 25.5272 120.893 25.7762 120.743 25.9769C120.592 26.1775 120.373 26.3158 120.127 26.3652ZM123.404 25.069C123.381 24.7983 123.466 24.5295 123.641 24.3218C123.816 24.1142 124.067 23.9846 124.338 23.9616C124.608 23.9385 124.877 24.024 125.085 24.1992C125.292 24.3743 125.422 24.6248 125.445 24.8955C125.468 25.1662 125.383 25.4349 125.208 25.6426C125.032 25.8503 124.782 25.9799 124.511 26.0029C124.24 26.0259 123.972 25.9404 123.764 25.7653C123.556 25.5902 123.427 25.3397 123.404 25.069ZM131.63 23.3542C128.487 23.6196 128.374 23.5278 128.017 23.9564C127.89 24.1047 127.809 24.2862 127.782 24.4795C127.755 24.6728 127.784 24.8697 127.866 25.0469C127.947 25.2241 128.078 25.3742 128.243 25.4794C128.407 25.5847 128.598 25.6406 128.793 25.6406C128.916 25.6406 128.793 25.6406 131.794 25.3956C132.065 25.3739 132.316 25.2456 132.492 25.0389C132.668 24.8322 132.755 24.564 132.733 24.2933C132.711 24.0226 132.583 23.7716 132.376 23.5955C132.169 23.4194 131.901 23.3326 131.63 23.3542ZM136.009 22.997C135.875 23.0077 135.745 23.0448 135.625 23.106C135.505 23.1672 135.399 23.2513 135.311 23.3537C135.224 23.4561 135.158 23.5746 135.117 23.7025C135.075 23.8305 135.06 23.9653 135.07 24.0993C135.081 24.2334 135.118 24.364 135.179 24.4837C135.24 24.6035 135.325 24.71 135.427 24.7972C135.529 24.8844 135.648 24.9505 135.776 24.9919C135.904 25.0333 136.039 25.0491 136.173 25.0384C136.307 25.0276 136.437 24.9906 136.557 24.9294C136.677 24.8682 136.783 24.784 136.871 24.6817C136.958 24.5793 137.024 24.4608 137.065 24.3328C137.107 24.2049 137.122 24.0701 137.112 23.936C137.101 23.802 137.064 23.6714 137.003 23.5517C136.942 23.4319 136.857 23.3254 136.755 23.2382C136.653 23.151 136.534 23.0848 136.406 23.0435C136.278 23.0021 136.143 22.9863 136.009 22.997ZM142.501 22.4561L142.501 24.4974L140.552 24.6505C140.281 24.6735 140.012 24.5881 139.804 24.4129C139.597 24.2378 139.467 23.9873 139.444 23.7166C139.421 23.4459 139.506 23.1771 139.682 22.9695C139.857 22.7618 140.107 22.6322 140.378 22.6092C142.736 22.4561 142.389 22.4561 142.501 22.4561Z" fill="#F6D445"/>
<path d="M166.999 24.4974C166.999 26.7735 166.999 26.5388 166.918 26.5388L164.876 26.3652C164.605 26.3422 164.355 26.2126 164.18 26.0049C164.005 25.7973 163.919 25.5285 163.942 25.2578C163.965 24.9871 164.095 24.7366 164.302 24.5615C164.51 24.3864 164.779 24.3009 165.05 24.3239L166.999 24.4974ZM159.568 24.8955C159.58 24.7614 159.617 24.631 159.679 24.5115C159.741 24.392 159.826 24.2859 159.929 24.1992C160.136 24.024 160.405 23.9385 160.676 23.9616C160.81 23.9729 160.94 24.0106 161.06 24.0724C161.179 24.1343 161.285 24.219 161.372 24.3218C161.459 24.4247 161.525 24.5436 161.565 24.6718C161.606 24.8 161.621 24.935 161.61 25.069C161.587 25.3397 161.457 25.5902 161.25 25.7653C161.042 25.9404 160.773 26.0259 160.502 26.0029C160.232 25.9799 159.981 25.8503 159.806 25.6426C159.631 25.4349 159.545 25.1662 159.568 24.8955ZM156.986 23.9564C156.629 23.5278 156.455 23.6094 153.373 23.3542C153.171 23.3374 152.968 23.3811 152.791 23.4798C152.614 23.5785 152.47 23.7277 152.378 23.9083C152.286 24.089 152.25 24.293 152.275 24.4942C152.299 24.6955 152.383 24.8849 152.515 25.0384C152.862 25.4466 152.924 25.3752 156.129 25.6406C156.331 25.6574 156.533 25.6137 156.71 25.515C156.887 25.4163 157.031 25.2671 157.123 25.0865C157.215 24.9058 157.251 24.7019 157.227 24.5006C157.202 24.2993 157.118 24.1099 156.986 23.9564ZM149.647 23.3542C149.539 23.2252 149.4 23.125 149.244 23.0625C149.087 23 148.918 22.9771 148.751 22.996C148.583 23.0149 148.423 23.0749 148.285 23.1707C148.146 23.2665 148.033 23.3951 147.957 23.545C147.88 23.6949 147.841 23.8615 147.845 24.0299C147.848 24.1983 147.893 24.3632 147.975 24.5101C148.058 24.6569 148.175 24.7811 148.317 24.8715C148.459 24.9619 148.622 25.0157 148.79 25.0282C148.99 25.043 149.19 24.9985 149.365 24.9002C149.54 24.8019 149.682 24.6542 149.774 24.4756C149.865 24.2969 149.902 24.0953 149.879 23.8958C149.857 23.6964 149.776 23.508 149.647 23.3542ZM145.564 23.7319C145.541 24.0011 145.412 24.2501 145.205 24.4242C144.998 24.5983 144.731 24.6833 144.462 24.6607L142.502 24.4974L142.502 22.4561C142.624 22.4561 142.39 22.4561 144.625 22.6296C144.759 22.6399 144.89 22.6766 145.01 22.7377C145.13 22.7987 145.237 22.8829 145.324 22.9854C145.411 23.0878 145.477 23.2065 145.519 23.3347C145.56 23.4628 145.575 23.5978 145.564 23.7319Z" fill="#E5A430"/>
</svg>
