<svg width="20" height="20" viewBox="0 0 20 20" fill="none" xmlns="http://www.w3.org/2000/svg">
<g clip-path="url(#clip0_313_9518)">
<path d="M19.6387 16.4166L18.5345 15.7866C18.7662 15.2691 18.8945 14.6958 18.8945 14.0924C18.8945 13.4891 18.7654 12.9166 18.5345 12.3983L19.6387 11.7683C19.6876 11.7419 19.7307 11.706 19.7655 11.6626C19.8002 11.6193 19.826 11.5695 19.8413 11.5161C19.8565 11.4627 19.8609 11.4068 19.8542 11.3516C19.8476 11.2965 19.8299 11.2432 19.8024 11.195C19.7748 11.1468 19.7379 11.1045 19.6938 11.0708C19.6497 11.037 19.5992 11.0124 19.5455 10.9985C19.4917 10.9845 19.4357 10.9814 19.3807 10.9894C19.3258 10.9974 19.2729 11.0163 19.2254 11.0449L18.1204 11.6758C17.7759 11.1924 17.3323 10.7881 16.8191 10.4899C16.306 10.1917 15.735 10.0065 15.1445 9.94661V8.67578C15.1445 8.56527 15.1006 8.45929 15.0225 8.38115C14.9444 8.30301 14.8384 8.25911 14.7279 8.25911C14.6174 8.25911 14.5114 8.30301 14.4332 8.38115C14.3551 8.45929 14.3112 8.56527 14.3112 8.67578V9.94661C13.7207 10.0066 13.1499 10.1919 12.6367 10.4901C12.1235 10.7883 11.6799 11.1925 11.3354 11.6758L10.2304 11.0449C10.1828 11.0163 10.13 10.9974 10.075 10.9894C10.02 10.9814 9.96404 10.9845 9.91028 10.9985C9.85652 11.0124 9.8061 11.037 9.76198 11.0708C9.71786 11.1045 9.68094 11.1468 9.65338 11.195C9.62582 11.2432 9.60818 11.2965 9.6015 11.3516C9.59482 11.4068 9.59924 11.4627 9.61449 11.5161C9.62973 11.5695 9.65551 11.6193 9.6903 11.6626C9.72508 11.706 9.76817 11.7419 9.81704 11.7683L10.9212 12.3983C10.6895 12.9158 10.5612 13.4891 10.5612 14.0924C10.5612 14.6958 10.6904 15.2683 10.9212 15.7866L9.81704 16.4166C9.72112 16.4715 9.65095 16.5623 9.62196 16.669C9.59297 16.7756 9.60754 16.8894 9.66246 16.9854C9.71738 17.0813 9.80816 17.1515 9.91482 17.1804C10.0215 17.2094 10.1353 17.1949 10.2312 17.1399L11.3362 16.5091C11.6806 16.9925 12.1243 17.3968 12.6374 17.695C13.1506 17.9932 13.7215 18.1784 14.312 18.2383V19.5091C14.312 19.6196 14.3559 19.7256 14.4341 19.8037C14.5122 19.8819 14.6182 19.9258 14.7287 19.9258C14.8392 19.9258 14.9452 19.8819 15.0233 19.8037C15.1015 19.7256 15.1454 19.6196 15.1454 19.5091V18.2383C15.7358 18.1783 16.3067 17.993 16.8199 17.6948C17.3331 17.3966 17.7767 16.9924 18.1212 16.5091L19.2262 17.1399C19.3221 17.1949 19.4359 17.2094 19.5426 17.1804C19.6493 17.1515 19.74 17.0813 19.795 16.9854C19.8499 16.8894 19.8644 16.7756 19.8355 16.669C19.8065 16.5623 19.7363 16.4715 19.6404 16.4166H19.6387ZM14.7279 17.4258C12.8895 17.4258 11.3945 15.9308 11.3945 14.0924C11.3945 12.2541 12.8895 10.7591 14.7279 10.7591C16.5662 10.7591 18.0612 12.2541 18.0612 14.0924C18.0612 15.9308 16.5662 17.4258 14.7279 17.4258ZM7.64454 9.92578C10.402 9.92578 12.6445 7.68328 12.6445 4.92578C12.6445 2.16828 10.402 -0.0742188 7.64454 -0.0742188C4.88704 -0.0742188 2.64454 2.16828 2.64454 4.92578C2.64454 7.68328 4.88704 9.92578 7.64454 9.92578ZM7.64454 0.759115C9.94204 0.759115 11.8112 2.62828 11.8112 4.92578C11.8112 7.22328 9.94204 9.09245 7.64454 9.09245C5.34704 9.09245 3.47787 7.22328 3.47787 4.92578C3.47787 2.62828 5.34704 0.759115 7.64454 0.759115ZM7.71787 11.9974C7.72045 12.0521 7.71224 12.1067 7.6937 12.1582C7.67515 12.2097 7.64665 12.2571 7.60982 12.2975C7.57298 12.338 7.52854 12.3708 7.47902 12.3941C7.4295 12.4174 7.37587 12.4307 7.32121 12.4333C5.61011 12.5137 3.99591 13.2507 2.81442 14.4911C1.63293 15.7314 0.975127 17.3795 0.977874 19.0924V19.5091C0.977874 19.6196 0.933975 19.7256 0.855835 19.8037C0.777695 19.8819 0.671714 19.9258 0.561207 19.9258C0.4507 19.9258 0.344719 19.8819 0.266579 19.8037C0.188439 19.7256 0.14454 19.6196 0.14454 19.5091V19.0924C0.141556 17.1653 0.881668 15.3112 2.21091 13.9158C3.54015 12.5205 5.35618 11.6913 7.28121 11.6008C7.49787 11.5883 7.70621 11.7666 7.71704 11.9974H7.71787Z" fill="#0E0E0E" fill-opacity="0.6"/>
</g>
<defs>
<clipPath id="clip0_313_9518">
<rect width="20" height="20" fill="white"/>
</clipPath>
</defs>
</svg>
